<svg width="116" height="116" viewBox="0 0 116 116" fill="none" xmlns="http://www.w3.org/2000/svg">
<path d="M90.4693 88.7345C88.2323 88.7426 86.0159 88.3073 83.9481 87.4538C81.8803 86.6004 80.0021 85.3456 78.4221 83.762L61.0201 66.3489C60.4045 65.7604 59.5857 65.4319 58.7341 65.4319C57.8825 65.4319 57.0637 65.7604 56.4481 66.3489L38.9873 83.8097C37.4083 85.3957 35.5306 86.653 33.4628 87.509C31.395 88.365 29.1781 88.8027 26.9401 88.797H23.5332L45.5843 110.848C48.8915 114.148 53.3729 116.002 58.045 116.002C62.7172 116.002 67.1985 114.148 70.5057 110.848L92.6009 88.7492L90.4693 88.7345Z" fill="white"/>
<path d="M26.9438 27.1955C29.1818 27.1895 31.3988 27.6272 33.4666 28.4832C35.5344 29.3392 37.4121 30.5966 38.991 32.1827L56.4518 49.6472C57.0588 50.2523 57.8808 50.592 58.7378 50.592C59.5948 50.592 60.4168 50.2523 61.0238 49.6472L78.4221 32.2489C79.9998 30.6608 81.8771 29.4019 83.9452 28.5451C86.0132 27.6884 88.2309 27.2509 90.4694 27.258H92.5642L70.469 5.16275C68.8329 3.526 66.8903 2.22762 64.7522 1.34178C62.6142 0.455941 60.3226 0 58.0083 0C55.694 0 53.4024 0.455941 51.2643 1.34178C49.1263 2.22762 47.1837 3.526 45.5476 5.16275L23.5332 27.1955H26.9438Z" fill="white"/>
<path d="M110.837 45.5401L97.4853 32.1882C97.1842 32.3113 96.8624 32.3761 96.5371 32.3793H90.4657C87.3063 32.3872 84.2778 33.642 82.0385 35.8707L64.6402 53.258C63.0733 54.8221 60.9499 55.7005 58.736 55.7005C56.5221 55.7005 54.3987 54.8221 52.8318 53.258L35.3673 35.8046C33.1287 33.5745 30.1 32.3184 26.9401 32.3095H19.4869C19.1797 32.3026 18.8761 32.2416 18.5901 32.1294L5.15363 45.5401C1.85344 48.8474 0 53.3287 0 58.0009C0 62.673 1.85344 67.1544 5.15363 70.4616L18.5607 83.8687C18.8461 83.7544 19.15 83.6933 19.4575 83.6886H26.9401C30.1 83.6793 33.1284 82.4233 35.3673 80.1935L52.8281 62.7327C55.9851 59.5794 61.4869 59.5794 64.6402 62.7327L82.0385 80.1273C84.2778 82.3561 87.3063 83.6108 90.4657 83.6187H96.5371C96.8625 83.621 97.1844 83.6859 97.4853 83.8098L110.837 70.4579C112.474 68.8218 113.772 66.8792 114.658 64.7411C115.544 62.6031 116 60.3115 116 57.9972C116 55.6829 115.544 53.3913 114.658 51.2532C113.772 49.1152 112.474 47.1726 110.837 45.5365" fill="white"/>
</svg>
