<svg width="617" height="603" viewBox="0 0 617 603" fill="none" xmlns="http://www.w3.org/2000/svg">
<path d="M9.17712 154.687C-33.7781 -0.969421 125.344 -16.8133 240.177 30.1867C307.177 54.3582 351.177 -20.8133 434.177 9.18666C517.177 39.1867 417.678 133.687 544.678 182.187C671.678 230.687 609.677 447.687 498.677 450.187C387.677 452.687 418.177 489.187 307.177 572.687C196.177 656.187 9.17738 540.187 55.6773 417.687C102.177 295.187 55.6768 323.187 9.17712 154.687Z" stroke="black" stroke-width="3"/>
<path d="M248.075 275.825C243.119 261 266.333 237.083 285 247.29C302.093 256.637 319.5 250.333 331 254.5C361.275 265.47 350.139 271.277 363.673 284.305C380.141 300.16 388 341.675 350.139 341.675C319 341.675 328.317 356.799 305 363.5C281.683 370.201 255.24 358.794 255.24 328.763C255.24 317.485 256.33 300.517 248.075 275.825Z" stroke="black" stroke-width="3"/>
<path d="M30.8921 164.943C-8.60862 22.0898 138.158 5.51197 244.249 49.1672C306.712 71.9909 348.295 3.08013 424.795 30.7317C503.001 59.0017 411.535 145.439 528.22 190.714C645.171 236.246 589.522 437.293 485.171 439.566C381.431 441.838 410.005 476.395 306.976 552.913C203.948 629.432 31.5436 522.94 73.8163 408.846C116.089 296.457 73.915 320.37 30.8921 164.943Z" stroke="black" stroke-width="3"/>
<path d="M52.6072 175.2C16.5609 45.1494 150.973 27.8377 248.321 68.148C306.247 89.6241 345.412 26.974 415.412 52.2771C488.826 78.8171 405.392 157.191 511.762 199.242C618.665 241.806 569.366 426.9 471.664 428.945C375.185 430.991 401.833 463.604 306.775 533.141C211.718 602.677 53.91 505.694 91.9554 400.007C130.001 297.729 92.1533 317.553 52.6072 175.2Z" stroke="black" stroke-width="3"/>
<path d="M74.3225 185.457C41.7306 68.2096 163.787 50.1639 252.393 87.1295C305.782 107.258 342.529 50.8685 406.029 73.8231C474.65 98.6331 399.249 168.944 495.304 207.77C592.159 247.367 549.211 416.507 458.158 418.325C368.938 420.143 393.661 450.814 306.575 513.368C219.488 575.923 76.2765 488.449 110.095 391.167C143.913 299.001 110.392 314.737 74.3225 185.457Z" stroke="black" stroke-width="3"/>
<path d="M96.0379 195.715C66.9005 91.2706 176.602 72.491 256.465 106.112C305.317 124.892 339.647 74.7637 396.647 95.3699C460.474 118.45 393.107 180.698 478.846 216.299C565.653 252.928 529.056 406.115 444.652 407.706C362.692 409.297 385.49 438.024 306.374 493.597C227.259 549.17 98.6432 471.204 128.234 382.329C157.825 300.273 128.63 311.922 96.0379 195.715Z" stroke="black" stroke-width="3"/>
<path d="M117.754 206.493C92.0706 114.851 189.416 95.3377 260.538 125.614C304.853 143.047 336.765 99.1786 387.265 117.436C446.299 138.786 386.964 192.971 462.389 225.348C539.147 259.009 508.901 396.243 431.146 397.607C356.447 398.97 377.318 425.754 306.174 474.345C235.03 522.937 121.01 454.479 146.374 374.01C171.737 302.066 146.869 309.626 117.754 206.493Z" stroke="black" stroke-width="3"/>
<path d="M139.47 217.886C117.241 139.047 202.232 118.799 264.61 145.73C304.389 161.816 333.883 124.208 377.883 140.118C432.124 159.738 380.823 205.859 445.932 235.011C512.642 265.705 488.747 386.985 417.641 388.122C350.201 389.258 369.147 414.099 305.974 455.708C242.801 497.318 143.377 438.369 164.514 366.306C185.65 304.473 165.108 307.945 139.47 217.886Z" stroke="black" stroke-width="3"/>
<path d="M161.186 229.313C142.412 163.276 215.047 142.295 268.684 165.881C303.925 180.619 331.002 149.272 368.502 162.833C417.95 180.723 374.681 218.782 429.475 244.709C486.137 272.435 468.593 377.762 404.136 378.671C343.956 379.58 360.976 402.477 305.775 437.106C250.573 471.734 165.745 422.293 182.654 358.636C199.563 306.914 183.348 306.299 161.186 229.313Z" stroke="black" stroke-width="3"/>
<path d="M182.904 240.789C167.584 187.555 227.864 165.84 272.758 186.081C303.462 199.471 328.121 174.385 359.121 185.598C403.776 201.758 368.541 231.753 413.02 254.456C459.633 279.214 448.44 368.588 390.632 369.27C337.712 369.952 352.807 390.906 305.576 418.552C258.345 446.198 188.114 406.266 200.796 351.016C213.478 309.405 201.589 304.701 182.904 240.789Z" stroke="black" stroke-width="3"/>
<path d="M204.622 252.337C192.757 211.906 240.682 189.457 276.834 206.354C303.001 218.396 325.243 199.571 349.743 208.435C389.604 222.865 362.402 244.797 396.566 264.275C433.131 286.065 428.288 359.487 377.129 359.941C331.47 360.396 344.638 379.406 305.379 400.071C266.12 420.735 210.484 390.312 218.939 343.468C227.393 311.968 219.831 303.176 204.622 252.337Z" stroke="black" stroke-width="3"/>
<path d="M226.345 263.996C217.934 236.368 253.504 213.185 280.913 226.736C302.543 237.431 322.367 224.866 340.367 231.382C375.435 244.082 356.266 257.952 380.115 274.205C406.632 293.027 408.14 350.495 363.63 350.722C325.231 350.95 336.474 368.017 305.185 381.7C273.897 395.383 232.858 374.467 237.085 336.03C241.312 314.641 238.076 301.761 226.345 263.996Z" stroke="black" stroke-width="3"/>
</svg>
